<?xml version="1.0" encoding="utf-8"?>
<!-- Generator: Adobe Illustrator 20.1.0, SVG Export Plug-In . SVG Version: 6.00 Build 0)  -->
<svg version="1.1" id="Capa_1" xmlns="http://www.w3.org/2000/svg" xmlns:xlink="http://www.w3.org/1999/xlink" x="0px" y="0px"
	 viewBox="0 0 29.1 21.8" style="enable-background:new 0 0 29.1 21.8;" xml:space="preserve">
<g>
	<path d="M25.4,0H3.6C1.6,0,0,1.6,0,3.6v14.5c0,2,1.6,3.6,3.6,3.6h21.8c2,0,3.6-1.6,3.6-3.6V3.6C29.1,1.6,27.4,0,25.4,0z M19.5,9.7
		l7.7-6.6c0.1,0.2,0.1,0.3,0.1,0.5v14.5c0,0.1,0,0.2-0.1,0.4L19.5,9.7z M25.4,1.8c0.1,0,0.2,0,0.3,0.1l-11.2,9.6L3.3,1.9
		c0.1,0,0.2-0.1,0.3-0.1H25.4z M1.9,18.5c0-0.1-0.1-0.2-0.1-0.4V3.6c0-0.2,0.1-0.4,0.1-0.5l7.7,6.6L1.9,18.5z M3.6,20
		c-0.2,0-0.4-0.1-0.5-0.1l7.9-9l3,2.5c0.2,0.1,0.4,0.2,0.6,0.2s0.4-0.1,0.6-0.2l3-2.5l7.9,9c-0.2,0.1-0.3,0.1-0.5,0.1H3.6z"/>
</g>
</svg>
