<?xml version="1.0" encoding="utf-8"?>
<!-- Generator: Adobe Illustrator 20.1.0, SVG Export Plug-In . SVG Version: 6.00 Build 0)  -->
<svg version="1.1" id="Слой_1" xmlns="http://www.w3.org/2000/svg" xmlns:xlink="http://www.w3.org/1999/xlink" x="0px" y="0px"
	 viewBox="0 0 32.7 52.4" style="enable-background:new 0 0 32.7 52.4;" xml:space="preserve">
<style type="text/css">
	.st0{fill:#FFFFFF;}
</style>
<path class="st0" d="M16.3,0C7.3,0,0,7.3,0,16.3v19.7c0,9,7.3,16.3,16.3,16.3s16.3-7.3,16.3-16.3V16.3C32.7,7.3,25.3,0,16.3,0z
	 M30.7,16.3v0.3c-4.2,2.2-8.9,3.4-13.7,3.5v-5.5c1.4-0.3,2.4-1.5,2.4-3V7.6c0-1.5-1-2.7-2.4-3V2C24.6,2.3,30.7,8.6,30.7,16.3z
	 M16.3,5.8c1,0,1.8,0.8,1.8,1.8v4.1c0,1-0.8,1.8-1.8,1.8s-1.8-0.8-1.8-1.8V7.6C14.6,6.6,15.4,5.8,16.3,5.8z M15.7,2v2.6
	c-1.4,0.3-2.4,1.5-2.4,3v4.1c0,1.5,1,2.7,2.4,3v5.5C10.9,20,6.2,18.8,2,16.6v-0.3C2,8.6,8.1,2.3,15.7,2z M16.3,50.4
	C8.4,50.4,2,44,2,36.1v-18c4.4,2.2,9.4,3.4,14.4,3.4c5,0,9.9-1.2,14.4-3.4v18C30.7,44,24.3,50.4,16.3,50.4z"/>
</svg>
