<?xml version="1.0" encoding="utf-8"?>
<!-- Generator: Adobe Illustrator 20.1.0, SVG Export Plug-In . SVG Version: 6.00 Build 0)  -->
<svg version="1.1" id="Layer_1" xmlns="http://www.w3.org/2000/svg" xmlns:xlink="http://www.w3.org/1999/xlink" x="0px" y="0px"
	 viewBox="0 0 255 255" style="enable-background:new 0 0 255 255;" xml:space="preserve">
<style type="text/css">
	.st0{fill:url(#SVGID_1_);}
	.st1{fill:url(#SVGID_2_);stroke:#242424;stroke-width:2;}
	.st2{fill:#242424;}
</style>
<linearGradient id="SVGID_1_" gradientUnits="userSpaceOnUse" x1="127.55" y1="255.9" x2="127.55" y2="1" gradientTransform="matrix(1 0 0 -1 0 256)">
	<stop  offset="0" style="stop-color:#F9D907"/>
	<stop  offset="1" style="stop-color:#F2B01D"/>
</linearGradient>
<path class="st0" d="M139.2,250.2c-6.4,6.4-16.9,6.4-23.3,0l-111-111c-6.4-6.4-6.4-16.9,0-23.3l111-111c6.4-6.4,16.9-6.4,23.3,0
	l111,111c6.4,6.4,6.4,16.9,0,23.3L139.2,250.2z"/>
<linearGradient id="SVGID_2_" gradientUnits="userSpaceOnUse" x1="127.5" y1="236.725" x2="127.5" y2="20.375" gradientTransform="matrix(1 0 0 -1 0 256)">
	<stop  offset="0" style="stop-color:#F9D907"/>
	<stop  offset="1" style="stop-color:#F2B01D"/>
</linearGradient>
<path class="st1" d="M137.4,231.5c-5.5,5.5-14.3,5.5-19.8,0l-94.1-94.1c-5.5-5.5-5.5-14.3,0-19.8l94.1-94.2c5.5-5.5,14.3-5.5,19.8,0
	l94.1,94.2c5.5,5.5,5.5,14.3,0,19.8L137.4,231.5z"/>
<path class="st2" d="M114.5,91.2L96,142.8L77.7,91.2H63.5l25.7,72.6h13.3l26.1-72.6C128.6,91.2,114.5,91.2,114.5,91.2z M179.3,91.2
	h-13.5l-17,50.6L132,91.2h-0.2l-6.9,19.2l17.8,53.4h12.2l15.4-45.8l7.8,45.8h13.4L179.3,91.2z"/>
</svg>
