<?xml version="1.0" encoding="utf-8"?>
<!-- Generator: Adobe Illustrator 20.1.0, SVG Export Plug-In . SVG Version: 6.00 Build 0)  -->
<svg version="1.1" id="Layer_1" xmlns="http://www.w3.org/2000/svg" xmlns:xlink="http://www.w3.org/1999/xlink" x="0px" y="0px"
	 viewBox="0 0 586.1 87.8" style="enable-background:new 0 0 586.1 87.8;" xml:space="preserve">
<style type="text/css">
	.st0{fill:#231F20;}
</style>
<g>
	<path class="st0" d="M30.8,34.6c4.1,1.4,7.3,3.8,9.5,7c2.2,3.2,3.3,7.2,3.3,11.8c0,6.7-2,11.8-5.9,15.3C33.8,72.2,27.2,74,18,74
		c-3.9,0-7.2-0.2-10-0.5c-2.7-0.3-5.4-0.8-8-1.6V2.1c2.6-0.8,5.3-1.3,8-1.6C10.8,0.2,14.1,0,18,0c7.7,0,13.4,1.7,17.1,5
		c3.7,3.4,5.5,8,5.5,14c0,3.1-0.9,6-2.6,8.8c-1.7,2.8-4.1,4.9-7.2,6.4V34.6z M17,31.3c3.4,0,6-1,7.9-3c1.9-2,2.9-4.9,2.9-8.8
		c0-3.9-1-6.8-2.9-8.8c-1.9-2-4.6-3-7.9-3h-4.6v23.6H17z M12.3,39v27.2H18c4.4,0,7.6-1.1,9.7-3.2c2.1-2.1,3.1-5.5,3.1-10.2
		c0-4.9-1-8.5-3.1-10.6C25.6,40.1,22.4,39,18,39H12.3z"/>
	<path class="st0" d="M71.9,20.5c3.4,0,6.3,0.5,8.8,1.4c2.5,1,4.7,2.5,6.4,4.6c1.7,2.1,3.1,4.9,4,8.3c0.9,3.4,1.3,7.5,1.3,12.4
		c0,4.9-0.4,9-1.3,12.4c-0.9,3.4-2.2,6.1-4,8.3c-1.7,2.1-3.9,3.7-6.4,4.6c-2.5,1-5.5,1.4-8.8,1.4s-6.3-0.5-8.8-1.4
		c-2.5-1-4.7-2.5-6.4-4.6c-1.7-2.1-3.1-4.9-4-8.3c-0.9-3.4-1.3-7.5-1.3-12.4c0-4.9,0.4-9,1.3-12.4c0.9-3.4,2.2-6.2,4-8.3
		c1.7-2.1,3.9-3.7,6.4-4.6C65.6,21,68.6,20.5,71.9,20.5z M71.9,27.2c-1.2,0-2.2,0.3-3.2,0.9c-1,0.6-1.9,1.6-2.6,3.1
		c-0.8,1.5-1.3,3.6-1.7,6.2c-0.4,2.6-0.6,5.9-0.6,9.9c0,4,0.2,7.3,0.6,9.9c0.4,2.6,1,4.7,1.7,6.2c0.8,1.5,1.6,2.6,2.6,3.1
		c1,0.6,2.1,0.9,3.2,0.9c1.2,0,2.2-0.3,3.2-0.9c1-0.6,1.9-1.6,2.6-3.1c0.8-1.5,1.3-3.6,1.7-6.2c0.4-2.6,0.6-5.9,0.6-9.9
		c0-4-0.2-7.3-0.6-9.9c-0.4-2.6-1-4.7-1.7-6.2c-0.8-1.5-1.6-2.5-2.6-3.1C74.2,27.5,73.1,27.2,71.9,27.2z"/>
	<path class="st0" d="M123.3,27.7c-1.6,0-3,0.3-4.2,0.9c-1.2,0.6-2.3,1.6-3.2,3.1c-0.9,1.5-1.6,3.5-2.1,6c-0.5,2.5-0.7,5.7-0.7,9.6
		c0,3.8,0.3,7,0.8,9.6c0.5,2.5,1.2,4.5,2.2,6c1,1.5,2.1,2.5,3.5,3.1c1.4,0.6,3,0.9,4.8,0.9h11.3v5.1c-1.6,0.6-3.5,1-5.9,1.4
		c-2.4,0.4-4.8,0.6-7.4,0.6c-3.6,0-6.8-0.5-9.5-1.4c-2.7-1-4.9-2.5-6.7-4.6c-1.8-2.1-3.2-4.9-4.1-8.3c-0.9-3.4-1.3-7.5-1.3-12.4
		c0-4.9,0.4-9,1.3-12.4c0.9-3.4,2.2-6.2,4-8.3c1.7-2.1,3.9-3.7,6.4-4.6c2.5-1,5.5-1.4,8.8-1.4c2.6,0,5.1,0.2,7.4,0.6
		c2.4,0.4,4.3,0.9,5.9,1.4v5.1H123.3z"/>
	<path class="st0" d="M176.2,21.6v7.7h-12.8v43.7H151V29.3h-12.8v-7.7H176.2z"/>
	<path class="st0" d="M200.8,20.5c3.4,0,6.3,0.5,8.8,1.4c2.5,1,4.7,2.5,6.4,4.6c1.7,2.1,3.1,4.9,4,8.3c0.9,3.4,1.3,7.5,1.3,12.4
		c0,4.9-0.4,9-1.3,12.4c-0.9,3.4-2.2,6.1-4,8.3c-1.7,2.1-3.9,3.7-6.4,4.6c-2.5,1-5.5,1.4-8.8,1.4c-3.4,0-6.3-0.5-8.8-1.4
		c-2.5-1-4.7-2.5-6.4-4.6c-1.7-2.1-3.1-4.9-4-8.3c-0.9-3.4-1.3-7.5-1.3-12.4c0-4.9,0.4-9,1.3-12.4c0.9-3.4,2.2-6.2,4-8.3
		c1.7-2.1,3.9-3.7,6.4-4.6C194.5,21,197.5,20.5,200.8,20.5z M200.8,27.2c-1.2,0-2.2,0.3-3.2,0.9c-1,0.6-1.9,1.6-2.6,3.1
		c-0.8,1.5-1.3,3.6-1.7,6.2c-0.4,2.6-0.6,5.9-0.6,9.9c0,4,0.2,7.3,0.6,9.9c0.4,2.6,1,4.7,1.7,6.2c0.8,1.5,1.6,2.6,2.6,3.1
		c1,0.6,2.1,0.9,3.2,0.9c1.2,0,2.2-0.3,3.2-0.9c1-0.6,1.9-1.6,2.6-3.1c0.8-1.5,1.3-3.6,1.7-6.2c0.4-2.6,0.6-5.9,0.6-9.9
		c0-4-0.2-7.3-0.6-9.9c-0.4-2.6-1-4.7-1.7-6.2c-0.8-1.5-1.6-2.5-2.6-3.1C203.1,27.5,202,27.2,200.8,27.2z"/>
	<path class="st0" d="M255.7,45.9c1.9,0.4,3.6,1.3,5.2,2.8c1.6,1.4,2.8,3.7,3.6,6.8l2.1,8.2c0.3,1,0.9,2,2,2.8
		c1,0.9,2.4,1.3,4.2,1.3v5.1c-0.5,0.2-1.2,0.4-2,0.5c-1.4,0.3-2.9,0.5-4.7,0.5c-3.4,0-6-0.8-7.9-2.4c-1.9-1.6-3.2-3.7-3.9-6.3
		l-2.6-9.8c-0.5-1.8-1.2-3.2-2.2-4.2c-1-1-2.1-1.5-3.4-1.5h-1.5v23.1h-12.3V21.6h12.3v20.5h1.5c0.8,0,1.5-0.4,2.2-1.1
		c0.7-0.7,1.5-2.2,2.5-4.6l3.1-7.7c1-2.6,2.4-4.6,4.1-6.1c1.7-1.4,4.1-2.2,7.2-2.2c0.9,0,1.7,0.1,2.6,0.2c0.8,0.1,1.5,0.2,2.2,0.4
		c0.8,0.2,1.4,0.4,2,0.5v5.1c-1.8,0-3.1,0.3-3.9,1c-0.8,0.7-1.4,1.4-1.7,2.1l-2.6,6.7c-1.1,2.9-2.3,5-3.5,6.4
		c-1.3,1.4-2.7,2.3-4.3,2.7V45.9z"/>
	<path class="st0" d="M276.9,38h32.9v8.2h-32.9V38z"/>
	<path class="st0" d="M335.4,1l16.2,48.8h0.4L368.3,1h13.4l4.1,71.9H374l-2.8-48.7h-0.4l-13.3,40h-11.3l-13.3-40h-0.4l-2.8,48.7H318
		L322.1,1H335.4z"/>
	<path class="st0" d="M434.1,50.9h-26.7c0,5.9,1,10,3.1,12.4c2.1,2.4,5.3,3.5,9.7,3.5h11.3v5.1c-1.6,0.6-3.5,1-5.9,1.4
		c-2.4,0.4-4.8,0.6-7.5,0.6c-4,0-7.4-0.5-10.3-1.4c-2.9-1-5.3-2.5-7.2-4.6c-1.9-2.1-3.3-4.9-4.2-8.3c-0.9-3.4-1.4-7.5-1.4-12.4
		c0-4.9,0.5-9,1.3-12.4c0.9-3.4,2.2-6.2,3.8-8.3c1.6-2.1,3.7-3.7,6.1-4.6c2.4-1,5.2-1.4,8.3-1.4c3.1,0,5.8,0.5,8.3,1.4
		c2.4,1,4.5,2.5,6.1,4.6c1.6,2.1,2.9,4.9,3.8,8.3c0.9,3.4,1.3,7.5,1.3,12.4V50.9z M421.7,43.7c0-3.4-0.2-6.1-0.6-8.2
		c-0.4-2.1-0.9-3.8-1.5-5c-0.6-1.2-1.4-2.1-2.3-2.5c-0.9-0.4-1.9-0.7-2.9-0.7c-1,0-2,0.2-2.9,0.7c-0.9,0.4-1.6,1.3-2.3,2.5
		c-0.6,1.2-1.1,2.9-1.5,5c-0.4,2.1-0.6,4.9-0.6,8.2H421.7z"/>
	<path class="st0" d="M489,65.2v22.6h-7.7c-1-1.8-1.9-3.9-2.6-6.5c-0.7-2.5-1.2-5.3-1.5-8.4H450c-0.3,3.1-0.8,5.9-1.5,8.4
		c-0.7,2.5-1.6,4.7-2.6,6.5h-7.7V65.2h4.6c1-1.3,2-3,2.9-5.2c0.9-2.2,1.5-5.1,1.7-8.7l1.5-29.8h33.9v43.7H489z M460.9,29.3
		l-1.1,22.1c-0.2,3.6-0.8,6.5-1.7,8.7c-0.9,2.2-1.9,3.9-2.9,5.2h15.4v-36H460.9z"/>
	<path class="st0" d="M525.5,40.6H525l-14.4,32.4h-12.3V21.6h11.8v31.3h0.5l13.4-31.3h13.4v51.4h-11.8V40.6z"/>
	<path class="st0" d="M564,74c-2.2,0-4.2-0.2-6.2-0.7c-1.9-0.4-3.6-1.3-5-2.5c-1.4-1.2-2.6-2.9-3.4-5c-0.9-2.1-1.3-4.9-1.3-8.2
		c0-3.4,0.4-6.1,1.3-8.2c0.9-2.1,2-3.8,3.5-5c1.5-1.2,3.3-2.1,5.3-2.5c2.1-0.4,4.3-0.7,6.8-0.7c1.6,0,3.1,0.1,4.6,0.3
		c1.5,0.2,2.9,0.4,4.2,0.7V38c0-4.1-1-6.8-2.9-8.2c-1.9-1.4-4.6-2.1-7.9-2.1h-10.3v-5.1c1.6-0.5,3.5-1,5.8-1.4
		c2.3-0.4,4.5-0.6,6.5-0.6c3.5,0,6.5,0.2,9.1,0.7c2.6,0.5,4.8,1.4,6.6,2.6c1.8,1.3,3.1,3.1,4,5.3c0.9,2.3,1.3,5.2,1.3,8.8v34.9h-8.7
		l-1.5-3.1h-0.5c-1.1,1-2.5,2-4.3,2.8C569.2,73.5,566.9,74,564,74z M573.8,48.3h-5.6c-0.9,0-1.8,0.1-2.7,0.4
		c-0.9,0.3-1.7,0.8-2.5,1.5c-0.7,0.7-1.3,1.7-1.8,2.9c-0.5,1.2-0.7,2.7-0.7,4.5c0,1.8,0.2,3.3,0.7,4.5c0.5,1.2,1.1,2.2,1.8,2.9
		c0.7,0.7,1.5,1.2,2.5,1.5c0.9,0.3,1.8,0.4,2.7,0.4c1.3,0,2.4-0.2,3.4-0.6c1-0.4,1.7-0.9,2.3-1.4V48.3z"/>
</g>
</svg>
