<?xml version="1.0" encoding="utf-8"?>
<!-- Generator: Adobe Illustrator 20.1.0, SVG Export Plug-In . SVG Version: 6.00 Build 0)  -->
<svg version="1.1" id="Layer_1" xmlns="http://www.w3.org/2000/svg" xmlns:xlink="http://www.w3.org/1999/xlink" x="0px" y="0px"
	 viewBox="0 0 182.9 44.8" style="enable-background:new 0 0 182.9 44.8;" xml:space="preserve">
<style type="text/css">
	.st0{fill:#242424;}
	.st1{fill:url(#SVGID_1_);}
	.st2{fill:url(#SVGID_2_);stroke:#242424;stroke-width:0.5;}
</style>
<g>
	<path class="st0" d="M64.9,20.8c0.9,0.3,1.5,0.8,2,1.5s0.7,1.5,0.7,2.5c0,1.4-0.4,2.5-1.3,3.3c-0.8,0.7-2.2,1.1-4.2,1.1
		c-0.8,0-1.5,0-2.1-0.1s-1.1-0.2-1.7-0.3V13.9c0.6-0.2,1.1-0.3,1.7-0.3c0.6-0.1,1.3-0.1,2.1-0.1c1.6,0,2.9,0.4,3.6,1.1
		c0.8,0.7,1.2,1.7,1.2,3c0,0.7-0.2,1.3-0.5,1.9C66.1,20,65.6,20.4,64.9,20.8L64.9,20.8z M62,20.1c0.7,0,1.3-0.2,1.7-0.6
		c0.4-0.4,0.6-1,0.6-1.9c0-0.8-0.2-1.5-0.6-1.9s-1-0.6-1.7-0.6h-1v5H62z M61,21.8v5.8h1.2c0.9,0,1.6-0.2,2.1-0.7
		c0.4-0.5,0.7-1.2,0.7-2.2s-0.2-1.8-0.7-2.3c-0.4-0.5-1.1-0.7-2.1-0.7H61V21.8z"/>
	<path class="st0" d="M73.6,17.8c0.7,0,1.3,0.1,1.9,0.3c0.5,0.2,1,0.5,1.4,1s0.7,1,0.8,1.8c0.2,0.7,0.3,1.6,0.3,2.6
		s-0.1,1.9-0.3,2.6c-0.2,0.7-0.5,1.3-0.8,1.8c-0.4,0.5-0.8,0.8-1.4,1c-0.5,0.2-1.2,0.3-1.9,0.3c-0.7,0-1.3-0.1-1.9-0.3
		c-0.5-0.2-1-0.5-1.4-1s-0.7-1-0.8-1.8c-0.2-0.7-0.3-1.6-0.3-2.6s0.1-1.9,0.3-2.6c0.2-0.7,0.5-1.3,0.8-1.8c0.4-0.5,0.8-0.8,1.4-1
		C72.3,17.9,72.9,17.8,73.6,17.8z M73.6,19.2c-0.2,0-0.5,0.1-0.7,0.2s-0.4,0.3-0.6,0.7c-0.2,0.3-0.3,0.8-0.4,1.3
		c-0.1,0.6-0.1,1.3-0.1,2.1c0,0.8,0,1.5,0.1,2.1s0.2,1,0.4,1.3c0.2,0.3,0.3,0.5,0.6,0.7c0.2,0.1,0.4,0.2,0.7,0.2
		c0.2,0,0.5-0.1,0.7-0.2s0.4-0.3,0.6-0.7c0.2-0.3,0.3-0.8,0.4-1.3c0.1-0.6,0.1-1.3,0.1-2.1c0-0.8,0-1.5-0.1-2.1s-0.2-1-0.4-1.3
		c-0.2-0.3-0.3-0.5-0.6-0.7C74.1,19.3,73.9,19.2,73.6,19.2z"/>
	<path class="st0" d="M84.6,19.4c-0.3,0-0.6,0.1-0.9,0.2s-0.5,0.3-0.7,0.7c-0.2,0.3-0.3,0.7-0.4,1.3c-0.1,0.5-0.2,1.2-0.2,2
		s0.1,1.5,0.2,2s0.3,1,0.5,1.3s0.5,0.5,0.8,0.7c0.3,0.1,0.6,0.2,1,0.2h2.4v1.1C87,29,86.5,29.1,86,29.2c-0.5,0.1-1,0.1-1.6,0.1
		c-0.8,0-1.4-0.1-2-0.3c-0.6-0.2-1-0.5-1.4-1s-0.7-1-0.9-1.8c-0.2-0.7-0.3-1.6-0.3-2.6s0.1-1.9,0.3-2.6c0.2-0.7,0.5-1.3,0.8-1.8
		c0.4-0.5,0.8-0.8,1.4-1c0.5-0.2,1.2-0.3,1.9-0.3c0.6,0,1.1,0,1.6,0.1s0.9,0.2,1.3,0.3v1.1C87.1,19.4,84.6,19.4,84.6,19.4z"/>
	<path class="st0" d="M95.8,18v1.6h-2.7V29h-2.6v-9.3h-2.7V18H95.8z"/>
	<path class="st0" d="M101,17.8c0.7,0,1.3,0.1,1.9,0.3c0.5,0.2,1,0.5,1.4,1s0.7,1,0.8,1.8c0.2,0.7,0.3,1.6,0.3,2.6s-0.1,1.9-0.3,2.6
		c-0.2,0.7-0.5,1.3-0.8,1.8c-0.4,0.5-0.8,0.8-1.4,1c-0.5,0.2-1.2,0.3-1.9,0.3c-0.7,0-1.3-0.1-1.9-0.3c-0.5-0.2-1-0.5-1.4-1
		s-0.7-1-0.8-1.8c-0.2-0.7-0.3-1.6-0.3-2.6s0.1-1.9,0.3-2.6c0.2-0.7,0.5-1.3,0.8-1.8c0.4-0.5,0.8-0.8,1.4-1
		C99.7,17.9,100.3,17.8,101,17.8z M101,19.2c-0.2,0-0.5,0.1-0.7,0.2s-0.4,0.3-0.6,0.7c-0.2,0.3-0.3,0.8-0.4,1.3
		c-0.1,0.6-0.1,1.3-0.1,2.1c0,0.8,0,1.5,0.1,2.1s0.2,1,0.4,1.3c0.2,0.3,0.3,0.5,0.6,0.7c0.2,0.1,0.4,0.2,0.7,0.2
		c0.2,0,0.5-0.1,0.7-0.2s0.4-0.3,0.6-0.7c0.2-0.3,0.3-0.8,0.4-1.3c0.1-0.6,0.1-1.3,0.1-2.1c0-0.8,0-1.5-0.1-2.1s-0.2-1-0.4-1.3
		c-0.2-0.3-0.3-0.5-0.6-0.7C101.5,19.3,101.3,19.2,101,19.2z"/>
	<path class="st0" d="M112.7,23.2c0.4,0.1,0.8,0.3,1.1,0.6c0.3,0.3,0.6,0.8,0.8,1.4L115,27c0.1,0.2,0.2,0.4,0.4,0.6
		c0.2,0.2,0.5,0.3,0.9,0.3V29c-0.1,0-0.3,0.1-0.4,0.1c-0.3,0.1-0.6,0.1-1,0.1c-0.7,0-1.3-0.2-1.7-0.5c-0.4-0.3-0.7-0.8-0.8-1.3
		l-0.5-2.1c-0.1-0.4-0.3-0.7-0.5-0.9c-0.2-0.2-0.5-0.3-0.7-0.3h-0.3V29h-2.6V18h2.6v4.4h0.3c0.2,0,0.3-0.1,0.5-0.2
		c0.1-0.2,0.3-0.5,0.5-1l0.7-1.6c0.2-0.6,0.5-1,0.9-1.3s0.9-0.5,1.5-0.5c0.2,0,0.4,0,0.5,0c0.2,0,0.3,0,0.5,0.1
		c0.2,0,0.3,0.1,0.4,0.1v1.1c-0.4,0-0.7,0.1-0.8,0.2c-0.2,0.1-0.3,0.3-0.4,0.4l-0.5,1.4c-0.2,0.6-0.5,1.1-0.8,1.4
		C113.3,22.9,113,23,112.7,23.2L112.7,23.2z"/>
	<path class="st0" d="M117.2,21.5h7v1.7h-7V21.5z"/>
	<path class="st0" d="M129.6,13.7l3.4,10.4h0.1l3.4-10.4h2.8l0.9,15.3h-2.5l-0.6-10.3H137l-2.8,8.5h-2.4l-2.8-8.5h0L128.4,29h-2.5
		l0.9-15.3H129.6z"/>
	<path class="st0" d="M150.6,24.3h-5.7c0,1.3,0.2,2.1,0.7,2.6c0.4,0.5,1.1,0.8,2.1,0.8h2.4v1.1c-0.3,0.1-0.8,0.2-1.3,0.3
		c-0.5,0.1-1,0.1-1.6,0.1c-0.8,0-1.6-0.1-2.2-0.3c-0.6-0.2-1.1-0.5-1.5-1s-0.7-1-0.9-1.8c-0.2-0.7-0.3-1.6-0.3-2.6s0.1-1.9,0.3-2.6
		s0.5-1.3,0.8-1.8s0.8-0.8,1.3-1s1.1-0.3,1.8-0.3s1.2,0.1,1.8,0.3c0.5,0.2,1,0.5,1.3,1s0.6,1,0.8,1.8c0.2,0.7,0.3,1.6,0.3,2.6v0.8
		H150.6z M148,22.7c0-0.7,0-1.3-0.1-1.7c-0.1-0.4-0.2-0.8-0.3-1.1c-0.1-0.3-0.3-0.4-0.5-0.5s-0.4-0.1-0.6-0.1c-0.2,0-0.4,0-0.6,0.1
		c-0.2,0.1-0.3,0.3-0.5,0.5c-0.1,0.3-0.2,0.6-0.3,1.1s-0.1,1-0.1,1.7H148z"/>
	<path class="st0" d="M162.3,27.3v4.8h-1.6c-0.2-0.4-0.4-0.8-0.6-1.4c-0.2-0.5-0.3-1.1-0.3-1.8H154c-0.1,0.7-0.2,1.3-0.3,1.8
		c-0.2,0.5-0.3,1-0.6,1.4h-1.6v-4.8h1c0.2-0.3,0.4-0.6,0.6-1.1c0.2-0.5,0.3-1.1,0.4-1.8l0.3-6.3h7.2v9.3L162.3,27.3L162.3,27.3z
		 M156.3,19.7l-0.2,4.7c0,0.8-0.2,1.4-0.4,1.8c-0.2,0.5-0.4,0.8-0.6,1.1h3.3v-7.6H156.3z"/>
	<path class="st0" d="M170,22.1h-0.1l-3.1,6.9h-2.6V18h2.5v6.7h0.1l2.8-6.7h2.8v11H170V22.1z"/>
	<path class="st0" d="M178.2,29.2c-0.5,0-0.9,0-1.3-0.1c-0.4-0.1-0.8-0.3-1.1-0.5c-0.3-0.3-0.6-0.6-0.7-1.1c-0.2-0.5-0.3-1-0.3-1.7
		s0.1-1.3,0.3-1.7c0.2-0.5,0.4-0.8,0.8-1.1c0.3-0.3,0.7-0.4,1.1-0.5c0.4-0.1,0.9-0.1,1.4-0.1c0.3,0,0.7,0,1,0.1
		c0.3,0,0.6,0.1,0.9,0.2v-0.9c0-0.9-0.2-1.5-0.6-1.7c-0.4-0.3-1-0.4-1.7-0.4h-2.2v-1.1c0.3-0.1,0.7-0.2,1.2-0.3
		c0.5-0.1,0.9-0.1,1.4-0.1c0.7,0,1.4,0.1,1.9,0.2c0.6,0.1,1,0.3,1.4,0.6c0.4,0.3,0.7,0.6,0.9,1.1s0.3,1.1,0.3,1.9v7H181l-0.3-0.7
		h-0.1c-0.2,0.2-0.5,0.4-0.9,0.6S178.8,29.2,178.2,29.2z M180.3,23.7h-1.2c-0.2,0-0.4,0-0.6,0.1c-0.2,0.1-0.4,0.2-0.5,0.3
		c-0.2,0.2-0.3,0.4-0.4,0.6c-0.1,0.3-0.2,0.6-0.2,1s0.1,0.7,0.2,0.9c0.1,0.3,0.2,0.5,0.4,0.6c0.2,0.2,0.3,0.3,0.5,0.3
		c0.2,0.1,0.4,0.1,0.6,0.1c0.3,0,0.5,0,0.7-0.1s0.4-0.2,0.5-0.3V23.7z"/>
</g>
<linearGradient id="SVGID_1_" gradientUnits="userSpaceOnUse" x1="22.4" y1="44.025" x2="22.4" y2="-0.825" gradientTransform="matrix(1 0 0 -1 0 44)">
	<stop  offset="0" style="stop-color:#F9D907"/>
	<stop  offset="1" style="stop-color:#F2B01D"/>
</linearGradient>
<path class="st1" d="M24.5,44c-1.1,1.1-3,1.1-4.1,0L0.8,24.5c-1.1-1.1-1.1-3,0-4.1L20.4,0.8c1.1-1.1,3-1.1,4.1,0L44,20.4
	c1.1,1.1,1.1,3,0,4.1L24.5,44z"/>
<linearGradient id="SVGID_2_" gradientUnits="userSpaceOnUse" x1="22.45" y1="40.5948" x2="22.45" y2="2.5706" gradientTransform="matrix(1 0 0 -1 0 44)">
	<stop  offset="0" style="stop-color:#F9D907"/>
	<stop  offset="1" style="stop-color:#F2B01D"/>
</linearGradient>
<path class="st2" d="M24.2,40.7c-1,1-2.5,1-3.5,0L4.1,24.2c-1-1-1-2.5,0-3.5L20.7,4.1c1-1,2.5-1,3.5,0l16.6,16.6c1,1,1,2.5,0,3.5
	L24.2,40.7z"/>
<path class="st0" d="M20.1,16l-3.3,9.1L13.7,16h-2.5l4.5,12.8H18L22.6,16H20.1z M31.5,16h-2.4l-3,8.9l-3-8.9l0,0L22,19.4l3.1,9.4
	h2.1l2.7-8.1l1.4,8.1h2.3L31.5,16z"/>
<g>
	<path class="st0" d="M59.4,36.7v2.1h2.5v-2.1h1V42h-1v-2.4h-2.5V42h-1v-5.3H59.4z"/>
	<path class="st0" d="M67.4,42l-0.1-0.7h0c-0.3,0.4-0.9,0.8-1.6,0.8c-1.1,0-1.6-0.8-1.6-1.5c0-1.3,1.1-2,3.2-2v-0.1
		c0-0.4-0.1-1.2-1.2-1.2c-0.5,0-1,0.2-1.4,0.4L64.4,37c0.4-0.3,1.1-0.5,1.7-0.5c1.6,0,2,1.1,2,2.2v2c0,0.5,0,0.9,0.1,1.3H67.4z
		 M67.3,39.3c-1.1,0-2.3,0.2-2.3,1.2c0,0.6,0.4,0.9,0.9,0.9c0.7,0,1.1-0.4,1.3-0.9c0-0.1,0.1-0.2,0.1-0.3V39.3z"/>
	<path class="st0" d="M69.8,38.4c0-0.7,0-1.2,0-1.7h0.9l0,0.9h0c0.4-0.6,1-1,1.9-1c1.3,0,2.3,1.1,2.3,2.7c0,1.9-1.2,2.9-2.4,2.9
		c-0.7,0-1.3-0.3-1.6-0.8h0v2.9h-1V38.4z M70.7,39.8c0,0.1,0,0.3,0,0.4c0.2,0.7,0.8,1.1,1.5,1.1c1,0,1.6-0.8,1.6-2.1
		c0-1.1-0.6-2-1.6-2c-0.7,0-1.3,0.5-1.5,1.2c0,0.1-0.1,0.3-0.1,0.4V39.8z"/>
	<path class="st0" d="M76.3,36.7l1.2,3.1c0.1,0.4,0.3,0.8,0.3,1.1h0c0.1-0.3,0.2-0.7,0.3-1.1l1.1-3.1h1l-1.5,3.8
		c-0.7,1.8-1.2,2.8-1.8,3.3c-0.5,0.4-0.9,0.6-1.2,0.6l-0.2-0.8c0.2-0.1,0.6-0.2,0.8-0.5c0.3-0.2,0.6-0.6,0.8-1.1
		c0-0.1,0.1-0.2,0.1-0.2s0-0.1-0.1-0.3l-2-4.9H76.3z"/>
	<path class="st0" d="M81.7,36.7l1.8,2.3h0.2v-2.3h0.9V39h0.2l1.8-2.3h1.1l-2.1,2.4c0.8,0.1,1.3,0.6,1.6,1.4
		c0.2,0.5,0.4,1.1,0.6,1.5h-1c-0.2-0.3-0.3-0.8-0.5-1.2c-0.3-0.9-0.8-1.1-1.5-1.1h-0.2V42h-0.9v-2.4h-0.2c-0.7,0-1.2,0.3-1.5,1.1
		c-0.2,0.5-0.3,0.9-0.5,1.2h-0.9c0.2-0.4,0.4-1,0.6-1.5c0.3-0.9,0.8-1.3,1.6-1.4l-2.1-2.4H81.7z"/>
	<path class="st0" d="M89.5,36.7v2.1H92v-2.1h1V42h-1v-2.4h-2.5V42h-1v-5.3H89.5z"/>
	<path class="st0" d="M97.5,42l-0.1-0.7h0c-0.3,0.4-0.9,0.8-1.6,0.8c-1.1,0-1.6-0.8-1.6-1.5c0-1.3,1.1-2,3.2-2v-0.1
		c0-0.4-0.1-1.2-1.2-1.2c-0.5,0-1,0.2-1.4,0.4L94.5,37c0.4-0.3,1.1-0.5,1.7-0.5c1.6,0,2,1.1,2,2.2v2c0,0.5,0,0.9,0.1,1.3H97.5z
		 M97.4,39.3c-1.1,0-2.3,0.2-2.3,1.2c0,0.6,0.4,0.9,0.9,0.9c0.7,0,1.1-0.4,1.3-0.9c0-0.1,0.1-0.2,0.1-0.3V39.3z"/>
	<path class="st0" d="M103.8,42h-1v-2.2h-0.7c-0.4,0-0.7,0.1-0.9,0.3c-0.4,0.3-0.5,1-0.7,1.5c-0.1,0.2-0.1,0.3-0.2,0.4h-1
		c0.1-0.2,0.2-0.4,0.3-0.6c0.2-0.5,0.4-1.2,0.8-1.6c0.2-0.1,0.4-0.3,0.6-0.3v0c-0.7-0.1-1.4-0.5-1.4-1.3c0-0.5,0.3-0.9,0.7-1.2
		c0.4-0.3,1.1-0.4,1.8-0.4c0.6,0,1.3,0.1,1.7,0.1V42z M102.9,37.3c-0.2,0-0.5-0.1-0.8-0.1c-0.7,0-1.4,0.2-1.4,0.9
		c0,0.7,0.8,0.9,1.4,0.9c0.4,0,0.6,0,0.8,0V37.3z"/>
	<path class="st0" d="M107.7,38.4c0-0.7,0-1.2,0-1.7h0.9l0,0.9h0c0.4-0.6,1-1,1.9-1c1.3,0,2.3,1.1,2.3,2.7c0,1.9-1.2,2.9-2.4,2.9
		c-0.7,0-1.3-0.3-1.6-0.8h0v2.9h-1V38.4z M108.7,39.8c0,0.1,0,0.3,0,0.4c0.2,0.7,0.8,1.1,1.5,1.1c1,0,1.6-0.8,1.6-2.1
		c0-1.1-0.6-2-1.6-2c-0.7,0-1.3,0.5-1.5,1.2c0,0.1-0.1,0.3-0.1,0.4V39.8z"/>
	<path class="st0" d="M114.5,39.5c0,1.3,0.9,1.8,1.8,1.8c0.7,0,1.1-0.1,1.5-0.3l0.2,0.7c-0.3,0.2-0.9,0.3-1.8,0.3
		c-1.6,0-2.6-1.1-2.6-2.7s0.9-2.9,2.5-2.9c1.7,0,2.2,1.5,2.2,2.5c0,0.2,0,0.4,0,0.5H114.5z M117.4,38.8c0-0.6-0.3-1.6-1.3-1.6
		c-1,0-1.4,0.9-1.5,1.6H117.4z"/>
	<path class="st0" d="M120.5,36.7V39h0.2l2-2.3h1.2l-2.3,2.4c0.9,0.1,1.4,0.7,1.8,1.6c0.1,0.4,0.3,0.9,0.6,1.3h-1
		c-0.1-0.2-0.3-0.6-0.5-1.1c-0.4-0.9-0.9-1.3-1.8-1.3h-0.2V42h-1v-5.3H120.5z"/>
	<path class="st0" d="M129.1,36.7V42h-1v-4.6h-1.8v1.4c0,1.5-0.1,2.5-0.8,2.9c-0.3,0.2-0.6,0.3-1.1,0.3l-0.1-0.8
		c0.2,0,0.4-0.1,0.5-0.2c0.5-0.4,0.6-1.1,0.6-2.3v-2.1H129.1z"/>
	<path class="st0" d="M133.6,42l-0.1-0.7h0c-0.3,0.4-0.9,0.8-1.6,0.8c-1.1,0-1.6-0.8-1.6-1.5c0-1.3,1.1-2,3.2-2v-0.1
		c0-0.4-0.1-1.2-1.2-1.2c-0.5,0-1,0.2-1.4,0.4l-0.2-0.6c0.4-0.3,1.1-0.5,1.7-0.5c1.6,0,2,1.1,2,2.2v2c0,0.5,0,0.9,0.1,1.3H133.6z
		 M133.4,39.3c-1.1,0-2.3,0.2-2.3,1.2c0,0.6,0.4,0.9,0.9,0.9c0.7,0,1.1-0.4,1.3-0.9c0-0.1,0.1-0.2,0.1-0.3V39.3z"/>
	<path class="st0" d="M136,36.7h1.2l1,2.7c0.1,0.4,0.4,1,0.5,1.5h0c0.1-0.4,0.4-1.2,0.6-1.8l0.9-2.3h1.2l0.4,5.3h-0.9l-0.1-2.5
		c0-0.6-0.1-1.3-0.1-1.9h0c-0.1,0.5-0.3,0.9-0.6,1.7l-1,2.7h-0.7l-0.9-2.6c-0.2-0.5-0.4-1.3-0.5-1.8h0c0,0.6-0.1,1.3-0.1,1.9
		l-0.1,2.5h-0.9L136,36.7z"/>
	<path class="st0" d="M145.9,42l-0.1-0.7h0c-0.3,0.4-0.9,0.8-1.6,0.8c-1.1,0-1.6-0.8-1.6-1.5c0-1.3,1.1-2,3.2-2v-0.1
		c0-0.4-0.1-1.2-1.2-1.2c-0.5,0-1,0.2-1.4,0.4l-0.2-0.6c0.4-0.3,1.1-0.5,1.7-0.5c1.6,0,2,1.1,2,2.2v2c0,0.5,0,0.9,0.1,1.3H145.9z
		 M145.8,39.3c-1.1,0-2.3,0.2-2.3,1.2c0,0.6,0.4,0.9,0.9,0.9c0.7,0,1.1-0.4,1.3-0.9c0-0.1,0.1-0.2,0.1-0.3V39.3z"/>
</g>
</svg>
