<?xml version="1.0" encoding="utf-8"?>
<!-- Generator: Adobe Illustrator 20.1.0, SVG Export Plug-In . SVG Version: 6.00 Build 0)  -->
<svg version="1.1" id="Layer_1" xmlns="http://www.w3.org/2000/svg" xmlns:xlink="http://www.w3.org/1999/xlink" x="0px" y="0px"
	 viewBox="0 0 496 496" style="enable-background:new 0 0 496 496;" xml:space="preserve">
<style type="text/css">
	.st0{fill:#FECF35;}
	.st1{fill:#333333;}
</style>
<path class="st0" d="M496,256V0H248v240h8v16h74.8c0.5,1.6,0.6,3.3,0.1,5.1c-1.4,6-1.7,12.4-0.6,19.1c3.5,20.8,21,37.2,41.9,39.5
	c28.9,3.2,53.4-19.4,53.4-47.7c0-3.5-0.4-7-1.1-10.3c-0.4-2-0.3-3.9,0.2-5.7L496,256L496,256z"/>
<g>
	<path class="st1" d="M435,256h61v-8c0-129.1-96-235.7-223.2-248L271.2,16C387.6,27.2,476,122.8,479.9,240H435
		c-5.7,0-11,2.5-14.5,6.9c-3.7,4.6-5.1,10.6-3.8,16.5c0.6,2.8,0.9,5.6,0.9,8.5c0,11.4-4.8,22.2-13.3,29.8
		c-8.6,7.7-19.7,11.2-31.2,10c-17.3-1.9-32-15.7-34.9-32.9c-0.9-5.4-0.8-10.7,0.5-15.9c1.3-5.4,0-11.1-3.6-15.6
		c-3.7-4.6-9.3-7.3-15.2-7.3h-64v16h64c1,0,2,0.5,2.6,1.3c0.5,0.6,0.7,1.3,0.5,2c-1.7,7.3-1.9,14.7-0.7,22.2
		c4.1,24.5,24.2,43.4,48.9,46.1c2.1,0.2,4.1,0.3,6.2,0.3c13.8,0,27.2-5,37.5-14.3c11.8-10.6,18.6-25.8,18.6-41.7
		c0-4.1-0.4-8.1-1.3-12c-0.2-1.1,0-2.3,0.6-3.1C433.5,256.3,434.2,256,435,256z"/>
	<path class="st1" d="M240,320c0,1-0.5,2-1.3,2.6c-0.6,0.5-1.3,0.7-2,0.5c-7.3-1.7-14.7-1.9-22.2-0.7c-24.5,4.1-43.4,24.2-46.1,48.9
		c-1.7,15.9,3.3,31.8,13.9,43.7c10.6,11.8,25.8,18.6,41.7,18.6c4.1,0,8.1-0.4,12-1.3c1.2-0.2,2.3,0,3.1,0.6c0.6,0.5,1,1.2,1,2v61h8
		c129.1,0,235.7-96,248-223.2l-15.9-1.5C468.8,387.6,373.2,476,256,479.9V435c0-5.7-2.5-11-6.9-14.5c-4.6-3.7-10.6-5.1-16.5-3.8
		c-13.6,3.1-28.8-1.8-38.3-12.4c-7.7-8.6-11.2-19.7-10-31.2c1.9-17.3,15.7-32,32.9-34.9c5.4-0.9,10.7-0.7,15.9,0.5
		c5.4,1.3,11.1,0,15.6-3.6c4.6-3.7,7.3-9.3,7.3-15.2v-64h-16L240,320L240,320z"/>
	<path class="st1" d="M176,240c-1,0-2-0.5-2.6-1.3c-0.5-0.6-0.7-1.3-0.5-2c1.7-7.3,1.9-14.7,0.7-22.2c-4.1-24.5-24.2-43.4-48.9-46.1
		c-15.9-1.8-31.8,3.3-43.7,13.9c-11.8,10.6-18.6,25.8-18.6,41.7c0,4.1,0.4,8.1,1.3,12c0.2,1.1,0,2.3-0.6,3.1c-0.5,0.6-1.2,1-2,1H0v8
		c0,129.1,96,235.7,223.2,248l1.5-15.9C108.4,468.8,20,373.2,16.1,256H61c5.7,0,11-2.5,14.5-6.9c3.7-4.6,5.1-10.6,3.8-16.5
		c-0.6-2.8-0.9-5.6-0.9-8.5c0-11.4,4.8-22.2,13.3-29.8c8.6-7.7,19.7-11.2,31.2-10c17.3,1.9,32,15.7,34.9,32.9
		c0.9,5.4,0.8,10.7-0.5,15.9c-1.3,5.4,0,11.1,3.6,15.6c3.7,4.6,9.3,7.4,15.2,7.4h64v-16H176z"/>
	<path class="st1" d="M256,176c0-1,0.5-2,1.3-2.6c0.6-0.5,1.3-0.7,2-0.5c7.3,1.7,14.7,1.9,22.2,0.7c24.5-4.1,43.4-24.2,46.1-48.9
		c1.7-15.9-3.3-31.8-13.9-43.7c-10.6-11.8-25.8-18.6-41.7-18.6c-4.1,0-8.1,0.4-12,1.3c-1.1,0.2-2.2,0-3.1-0.6c-0.6-0.5-1-1.2-1-2V0
		h-8C118.9,0,12.3,96,0,223.2l15.9,1.5C27.2,108.4,122.8,20,240,16.1V61c0,5.7,2.5,11,6.9,14.5c4.6,3.7,10.6,5.1,16.5,3.8
		c13.6-3,28.8,1.8,38.3,12.4c7.7,8.6,11.2,19.7,10,31.2c-1.9,17.3-15.7,32-32.9,34.9c-5.4,0.9-10.7,0.7-15.9-0.5
		c-5.5-1.3-11.1,0-15.6,3.6c-4.6,3.7-7.3,9.3-7.3,15.2v64h16L256,176L256,176z"/>
</g>
</svg>
