<?xml version="1.0" encoding="utf-8"?>
<!-- Generator: Adobe Illustrator 20.1.0, SVG Export Plug-In . SVG Version: 6.00 Build 0)  -->
<svg version="1.1" id="Layer_1" xmlns="http://www.w3.org/2000/svg" xmlns:xlink="http://www.w3.org/1999/xlink" x="0px" y="0px"
	 viewBox="0 0 395.6 395.6" style="enable-background:new 0 0 395.6 395.6;" xml:space="preserve">
<style type="text/css">
	.st0{fill:#2EA2DB;}
	.st1{fill:#FFFFFF;}
	.st2{fill:#FECF35;}
	.st3{fill:#333333;}
</style>
<rect id="SVGCleanerId_0" x="43.2" y="75.7" class="st0" width="309.1" height="200.3"/>
<polygon class="st1" points="389.4,6.5 6.2,6.5 6.2,51 18.6,51 18.6,300.7 377.1,300.7 377.1,51 389.4,51 "/>
<g>
	<rect id="SVGCleanerId_0_1_" x="43.2" y="75.7" class="st2" width="309.1" height="200.3"/>
</g>
<g>
	<path class="st3" d="M0,0.3v56.9h12.3v249.7h179.3v27.2c-14.2,3.1-24.8,15.5-24.8,30.3c0,17.3,14.2,30.9,30.9,30.9
		c17.3,0,30.9-14.2,30.9-30.9c0-14.9-8-26-24.8-30.3v-27.8h179.3V57.2h12.5V0.3H0z M216.4,365c0,10.5-8.7,18.6-18.6,18.6
		c-10.5,0-18.6-8.7-18.6-18.6c0-10.5,8.7-18.6,18.6-18.6C208.4,345.8,215.7,354.5,216.4,365z M370.9,294.6H24.8V57.2h346.2
		L370.9,294.6L370.9,294.6z M383.3,44.8H12.3V12.6h370.9L383.3,44.8L383.3,44.8z"/>
	<polygon class="st3" points="259,129.5 259,141.9 275.5,141.9 244.2,172.8 221.9,150.5 187.9,184.5 157.6,154.2 100.1,211.7 
		109.4,220.3 157.6,172.1 187.9,201.8 221.9,167.8 244.2,190.7 284.4,150.5 284.4,167.2 296.7,167.2 296.7,129.5 	"/>
	<rect x="150.8" y="22.5" class="st3" width="12.3" height="12.3"/>
	<rect x="191.6" y="22.5" class="st3" width="12.3" height="12.3"/>
	<rect x="232.4" y="22.5" class="st3" width="12.3" height="12.3"/>
</g>
</svg>
