<?xml version="1.0" encoding="utf-8"?>
<!-- Generator: Adobe Illustrator 20.1.0, SVG Export Plug-In . SVG Version: 6.00 Build 0)  -->
<svg version="1.1" id="Layer_1" xmlns="http://www.w3.org/2000/svg" xmlns:xlink="http://www.w3.org/1999/xlink" x="0px" y="0px"
	 viewBox="0 0 496 496" style="enable-background:new 0 0 496 496;" xml:space="preserve">
<style type="text/css">
	.st0{fill:#333333;}
	.st1{fill:#FECF35;}
</style>
<g>
	<rect x="280" y="192" class="st0" width="16" height="24"/>
	<path class="st0" d="M168,56c-23.7,0-43.4,17.3-47.3,40H88H50.1C22.5,96,0,118.5,0,146.1V212c0,15.4,12.6,28,28,28
		c4.3,0,8.4-1.1,12-2.8V356c0,15.4,12.6,28,28,28c7.8,0,14.9-3.3,20-8.5c5.1,5.2,12.2,8.5,20,8.5c4.3,0,8.4-1.1,12-2.8V412
		c0,15.4,12.6,28,28,28c7.8,0,14.9-3.3,20-8.5c5.1,5.2,12.2,8.5,20,8.5c15.4,0,28-12.6,28-28h-16c0,6.6-5.4,12-12,12s-12-5.4-12-12
		V304h-16v108c0,6.6-5.4,12-12,12s-12-5.4-12-12V268v-4v-72h-16v72v4c0,6.6-5.4,12-12,12s-12-5.4-12-12v-20v-45.9
		c0-18.8,15.3-34.1,34.1-34.1h75.8v-16H168h-32v-12.3c8.5,7.6,19.7,12.3,32,12.3c26.5,0,48-21.5,48-48S194.5,56,168,56z M108,296
		c4.3,0,8.4-1.1,12-2.8V356c0,6.6-5.4,12-12,12s-12-5.4-12-12v-62.8C99.6,294.9,103.7,296,108,296z M80,202.1V248v20v88
		c0,6.6-5.4,12-12,12s-12-5.4-12-12V212v-4v-72H40v72v4c0,6.6-5.4,12-12,12s-12-5.4-12-12v-65.9c0-18.8,15.3-34.1,34.1-34.1h70.6
		c1.5,9.1,5.7,17.4,11.6,24H120v17C97.2,157.7,80,177.9,80,202.1z M168,136c-17.6,0-32-14.4-32-32s14.4-32,32-32s32,14.4,32,32
		S185.6,136,168,136z"/>
	<rect x="200" y="192" class="st0" width="16" height="24"/>
	<path class="st0" d="M136,48c0-26.5-21.5-48-48-48S40,21.5,40,48s21.5,48,48,48S136,74.5,136,48z M88,80c-17.6,0-32-14.4-32-32
		s14.4-32,32-32s32,14.4,32,32S105.6,80,88,80z"/>
	<path class="st0" d="M456,48c0-26.5-21.5-48-48-48s-48,21.5-48,48s21.5,48,48,48S456,74.5,456,48z M408,80c-17.6,0-32-14.4-32-32
		s14.4-32,32-32s32,14.4,32,32S425.6,80,408,80z"/>
	<path class="st0" d="M445.9,96H408h-32.7c-3.8-22.7-23.5-40-47.3-40c-26.5,0-48,21.5-48,48s21.5,48,48,48c12.3,0,23.5-4.7,32-12.3
		V152h-32h-37.9v16h75.8c18.8,0,34.1,15.3,34.1,34.1V248v20c0,6.6-5.4,12-12,12s-12-5.4-12-12v-4v-72h-16v72v4v144
		c0,6.6-5.4,12-12,12s-12-5.4-12-12V304h-16v108c0,6.6-5.4,12-12,12s-12-5.4-12-12h-16c0,15.4,12.6,28,28,28c7.8,0,14.9-3.3,20-8.5
		c5.1,5.2,12.2,8.5,20,8.5c15.4,0,28-12.6,28-28v-30.8c3.6,1.7,7.7,2.8,12,2.8c7.8,0,14.9-3.3,20-8.5c5.1,5.2,12.2,8.5,20,8.5
		c15.4,0,28-12.6,28-28V237.2c3.6,1.7,7.7,2.8,12,2.8c15.4,0,28-12.6,28-28v-65.9C496,118.5,473.5,96,445.9,96z M328,136
		c-17.6,0-32-14.4-32-32s14.4-32,32-32s32,14.4,32,32S345.6,136,328,136z M388,368c-6.6,0-12-5.4-12-12v-62.8
		c3.6,1.7,7.7,2.8,12,2.8s8.4-1.1,12-2.8V356C400,362.6,394.6,368,388,368z M480,212c0,6.6-5.4,12-12,12s-12-5.4-12-12v-4v-72h-16
		v72v4v144c0,6.6-5.4,12-12,12s-12-5.4-12-12v-88v-20v-45.9c0-24.2-17.2-44.4-40-49.1v-17h-12.3c5.9-6.6,10.1-14.9,11.6-24h70.6
		c18.8,0,34.1,15.3,34.1,34.1L480,212L480,212z"/>
</g>
<g>
	<path class="st1" d="M296,160c0-26.5-21.5-48-48-48s-48,21.5-48,48s21.5,48,48,48S296,186.5,296,160z"/>
	<path class="st1" d="M285.9,208H248h-37.9c-27.6,0-50.1,22.5-50.1,50.1V324c0,15.4,12.6,28,28,28c4.3,0,8.4-1.1,12-2.8V468
		c0,15.4,12.6,28,28,28c7.8,0,14.9-3.3,20-8.5c5.1,5.2,12.2,8.5,20,8.5c15.4,0,28-12.6,28-28V349.2c3.6,1.7,7.7,2.8,12,2.8
		c15.4,0,28-12.6,28-28v-65.9C336,230.5,313.5,208,285.9,208z"/>
</g>
</svg>
