<?xml version="1.0" encoding="utf-8"?>
<!-- Generator: Adobe Illustrator 20.1.0, SVG Export Plug-In . SVG Version: 6.00 Build 0)  -->
<svg version="1.1" id="Layer_1" xmlns="http://www.w3.org/2000/svg" xmlns:xlink="http://www.w3.org/1999/xlink" x="0px" y="0px"
	 viewBox="0 0 496 496" style="enable-background:new 0 0 496 496;" xml:space="preserve">
<style type="text/css">
	.st0{fill:#FECF35;}
	.st1{fill:#333333;}
</style>
<path class="st0" d="M48,315.4c0,28.2,12.8,53.5,36,72c7.3-2.1,15.1-3.3,23.1-3.3H167c18.2,0,33-14.8,33-33l3.8,1
	c-48.9-18-83.8-64.9-83.8-120v-40c0,0,34.2-6.9,64-24s64-64,64-64s29.3,45.1,56,64s72,24,72,24v40c0,55.1-34.9,102-83.8,120l3.8-1
	c0,18.2,14.8,33,33,33H389c8,0,15.7,1.2,23.1,3.3c23.2-18.4,36-43.8,36-72c0-8-1-15.7-3.2-23.5c12.6-16.2,19.2-35.4,19.2-56
	c0-37-22.4-70.4-56.4-84.7C403.1,67.4,332.6,0,248,0S93,67.4,88.4,151.3C54.5,165.5,32,198.9,32,236c0,20.3,6.8,40.1,19.2,56.1
	C49,300,48,307.4,48,315.4z"/>
<path class="st1" d="M388.9,376H329c-12.2,0-22.4-8.8-24.6-20.4C351.3,334.1,384,286.9,384,232v-47.2l-7.1-0.8
	c-0.4,0-43.5-5.1-68.3-22.6c-25.1-17.8-53.6-61.4-53.9-61.8l-6.3-9.7l-6.8,9.4c-0.3,0.5-33.6,45.7-61.5,61.8
	c-28.2,16.2-61.3,23-61.6,23.1l-6.4,1.3V232c0,20,4.5,39,12.2,56.1c-12.2-8.3-20.2-22.3-20.2-38.1v-90H88v90
	c0,29.8,21.2,54.8,49.3,60.7c13.8,19.3,32.5,34.9,54.3,44.9c-2.2,11.6-12.3,20.4-24.6,20.4h-59.9C56.9,376,16,416.9,16,467.1V496
	h153.6h156.7H480v-28.9C480,416.9,439.2,376,388.9,376z M158.8,312h58.7c3.3,9.3,12.1,16,22.5,16h16c13.2,0,24-10.8,24-24
	s-10.8-24-24-24h-16c-10.4,0-19.2,6.7-22.5,16H150c-1.2,0-2.3-0.1-3.5-0.2C134.9,277.4,128,255.5,128,232v-33.6
	c11.6-2.9,36.9-10.2,60-23.4c23-13.2,47.9-42.5,59.6-57.3c10.3,14.6,31.5,42.5,51.8,56.9c21.8,15.4,54.3,22.1,68.6,24.4V232
	c0,66.2-53.8,120-120,120C212.6,352,180.8,336.5,158.8,312z M232,304c0-4.4,3.6-8,8-8h16c4.4,0,8,3.6,8,8s-3.6,8-8,8h-16
	C235.6,312,232,308.5,232,304z M32,480v-12.9c0-41.4,33.7-75.1,75.1-75.1h4.9v46.4c0,16.4,6.9,31.1,17.9,41.6L32,480L32,480z
	 M169.7,480c-23,0-41.6-18.7-41.6-41.6V392h39c19,0,34.9-13,39.5-30.5c13.1,4.2,27,6.5,41.5,6.5c14.5,0,28.4-2.3,41.5-6.5
	C294.2,379,310.1,392,329,392h39v46.4c0,23-18.7,41.6-41.6,41.6L169.7,480L169.7,480z M464,480h-97.9c11-10.5,17.9-25.3,17.9-41.6
	V392h4.9c41.4,0,75.1,33.7,75.1,75.1V480z"/>
</svg>
