<?xml version="1.0" encoding="utf-8"?>
<!-- Generator: Adobe Illustrator 20.1.0, SVG Export Plug-In . SVG Version: 6.00 Build 0)  -->
<svg version="1.1" id="Слой_1" xmlns="http://www.w3.org/2000/svg" xmlns:xlink="http://www.w3.org/1999/xlink" x="0px" y="0px"
	 viewBox="0 0 470 470.1" style="enable-background:new 0 0 470 470.1;" xml:space="preserve">
<style type="text/css">
	.st0{fill:#FECF35;}
	.st1{fill:#363636;}
</style>
<path class="st0" d="M149.5,115.5l-0.5,126l148.5-1c0,0,8-3.5,7-12.5S288,208,288,208s26-0.5,24-13.5s-25.5-19-25.5-19
	s33.5,7.5,31.5-11s-22-22.5-31-20c31.5-2,40.5-4,38-14.5s-5-18-13.5-18s-56,0-56,0s20.5-56,13-65.5S246,30,241,40.5
	S230.5,92,216,100s-20,13-31,14.5S149.5,115.5,149.5,115.5z"/>
<g>
	<path class="st1" d="M465.1,138L465.1,138c-3.3-3.6-8.1-5.9-13.4-5.9h-44.8V7.5c0-4.1-3.4-7.5-7.5-7.5H70.6c-4.1,0-7.5,3.4-7.5,7.5
		v124.6H18.3c-5.3,0-10.1,2.3-13.4,5.9c-3,3.3-4.9,7.6-4.9,12.4v301.4c0,10.1,8.2,18.3,18.3,18.3h433.4c10.1,0,18.3-8.2,18.3-18.3
		V150.4C470,145.6,468.1,141.2,465.1,138z M63.1,147.1V162c0,4.1,3.4,7.5,7.5,7.5s7.5-3.4,7.5-7.5V15h313.8v147
		c0,4.1,3.4,7.5,7.5,7.5s7.5-3.4,7.5-7.5v-14.9h38L243.4,356.9c-2.3,2.4-5.3,3.6-8.4,3.6s-6.2-1.3-8.4-3.6L25.1,147.1L63.1,147.1
		L63.1,147.1z M455,451.7c0,1.8-1.5,3.3-3.3,3.3H18.3c-1.8,0-3.3-1.5-3.3-3.3V158.2L152.1,301L31.4,426.7c-2.9,3-2.8,7.7,0.2,10.6
		c1.5,1.4,3.3,2.1,5.2,2.1c2,0,3.9-0.8,5.4-2.3l120.2-125.2l53.2,55.4c5.1,5.3,12,8.3,19.3,8.3s14.1-2.9,19.3-8.3l53.2-55.4l70.2,73
		c0.2,0.3,0.4,0.5,0.7,0.8l49.3,51.4c1.5,1.5,3.4,2.3,5.4,2.3c1.9,0,3.7-0.7,5.2-2.1c3-2.9,3.1-7.6,0.2-10.6l-45.5-47.4
		c-0.2-0.3-0.4-0.6-0.7-0.8l-74.5-77.4L455,158.2V451.7z"/>
	<path class="st1" d="M311.5,224.6c0-4.6-1.3-8.9-3.7-12.6c6.1-4.2,10.2-11.3,10.2-19.3c0-4.6-1.3-8.9-3.7-12.5
		c6.1-4.2,10.2-11.3,10.2-19.3c0-4.6-1.3-8.9-3.7-12.6c6.1-4.2,10.2-11.3,10.2-19.3c0-12.9-10.5-23.4-23.4-23.4h-42.5
		c7.1-15.2,10.9-33.3,10.9-52.1c0-12.9-10.5-23.4-23.4-23.4s-23.4,10.5-23.4,23.4c0,28.7-23.4,52.1-52.1,52.1h-30.7
		c-4.1,0-7.5,3.4-7.5,7.5v127.5c0,4.1,3.4,7.5,7.5,7.5h141.7C301,248,311.5,237.5,311.5,224.6z M169.6,233h-15.7V120.5h15.7V233z
		 M184.6,120.1c33.5-3.7,59.6-32.2,59.6-66.7l0,0c0-4.6,3.8-8.4,8.4-8.4c4.7,0,8.4,3.8,8.4,8.4c0,21-5.3,40.8-14.9,55.5
		c-1.5,2.3-1.6,5.2-0.3,7.7c1.3,2.4,3.8,3.9,6.6,3.9h55.2c4.6,0,8.4,3.8,8.4,8.4c0,4.6-3.8,8.4-8.4,8.4H288c-4.1,0-7.5,3.4-7.5,7.5
		s3.4,7.5,7.5,7.5h13.1c4.6,0,8.4,3.8,8.4,8.4s-3.8,8.4-8.4,8.4H288c-4.1,0-7.5,3.4-7.5,7.5s3.4,7.5,7.5,7.5h6.5
		c4.6,0,8.4,3.8,8.4,8.4s-3.8,8.4-8.4,8.4H288c-4.1,0-7.5,3.4-7.5,7.5s3.4,7.5,7.5,7.5c4.6,0,8.4,3.8,8.4,8.4c0,4.7-3.8,8.4-8.4,8.4
		H184.5V120.1H184.6z"/>
</g>
</svg>
