<?xml version="1.0" encoding="utf-8"?>
<!-- Generator: Adobe Illustrator 20.1.0, SVG Export Plug-In . SVG Version: 6.00 Build 0)  -->
<svg version="1.1" id="Layer_1" xmlns="http://www.w3.org/2000/svg" xmlns:xlink="http://www.w3.org/1999/xlink" x="0px" y="0px"
	 viewBox="0 0 496 496" style="enable-background:new 0 0 496 496;" xml:space="preserve">
<style type="text/css">
	.st0{fill:#333333;}
	.st1{fill:#FECF35;}
</style>
<g>
	<path class="st0" d="M378.9,355c-3-3-8.3-3-11.3,0c-1.5,1.5-2.4,3.6-2.4,5.7c0,1,0.2,2.1,0.6,3c0.4,1,1,1.8,1.8,2.6
		c0.7,0.7,1.6,1.3,2.6,1.7s2,0.6,3,0.6c1.1,0,2.2-0.2,3.1-0.6s1.8-1,2.6-1.7c0.7-0.8,1.4-1.7,1.8-2.6s0.6-2,0.6-3s-0.2-2.1-0.6-3
		C380.2,356.6,379.6,355.8,378.9,355z"/>
	<path class="st0" d="M85.8,406.5c-2.6,3.6-1.7,8.6,1.9,11.2c1.4,1,3,1.4,4.6,1.4c2.5,0,5-1.2,6.5-3.4c2.6-3.6,1.8-8.6-1.8-11.1
		C93.4,402.2,88.4,403,85.8,406.5z"/>
	<path class="st0" d="M123.2,420.3c-4-2-8.7-0.3-10.7,3.6c-1.9,4-0.3,8.8,3.7,10.7c1.1,0.6,2.3,0.9,3.5,0.9c3,0,5.8-1.7,7.1-4.5
		C128.8,427,127.2,422.2,123.2,420.3z"/>
	<path class="st0" d="M62.3,385.3c-3.1,3.1-3,8.2,0.2,11.3c1.5,1.5,3.5,2.3,5.6,2.3c2,0,4.1-0.8,5.7-2.4c3-3.1,3-8.2-0.1-11.4
		C70.5,382.1,65.4,382.1,62.3,385.3z"/>
	<path class="st0" d="M25.7,308.3c-1.4-4.2-5.9-6.5-10.2-5.1c-4.2,1.4-6.4,5.9-5,10.1c1.1,3.4,4.2,5.5,7.6,5.5
		c0.8,0,1.7-0.1,2.5-0.4C24.8,317,27,312.5,25.7,308.3z"/>
	<path class="st0" d="M11.8,287.8c4.3-0.6,7.3-4.8,6.6-9.1c-0.6-4.4-4.8-7.4-9.1-6.6c-4.4,0.7-7.4,4.8-6.6,9.2
		c0.6,3.9,4,6.7,7.9,6.7C11,288,11.4,287.9,11.8,287.8z"/>
	<path class="st0" d="M151.5,431.5c-4.2-1.3-8.7,1.1-10,5.4c-1.4,4.2,1,8.6,5.3,10c0.8,0.2,1.6,0.3,2.3,0.3c3.4,0,6.6-2.2,7.7-5.7
		C158.1,437.4,155.8,432.9,151.5,431.5z"/>
	<path class="st0" d="M26.7,333c-3.9,2-5.5,6.8-3.4,10.7c1.4,2.8,4.2,4.3,7.1,4.3c1.2,0,2.5-0.2,3.7-0.9c3.9-2,5.4-6.9,3.4-10.8
		C35.4,332.4,30.6,330.9,26.7,333z"/>
	<path class="st0" d="M42.4,360.5c-3.5,2.6-4.2,7.7-1.6,11.2c-0.1,0-0.1,0-0.1,0c1.6,2.2,4,3.3,6.5,3.3c1.7,0,3.4-0.6,4.7-1.6
		c3.6-2.6,4.3-7.7,1.7-11.2C51,358.6,46,357.9,42.4,360.5z"/>
	<path class="st0" d="M299.3,417c-3.8,2.1-5.3,7-3.2,10.8c1.4,2.7,4.2,4.2,7,4.2c1.3,0,2.6-0.3,3.8-1c3.8-2.2,5.3-7,3.2-10.9
		C308,416.2,303.2,414.8,299.3,417z"/>
	<path class="st0" d="M324.9,400.3c-3.5,2.7-4.2,7.8-1.5,11.3c1.6,2,4,3.1,6.4,3.1c1.7,0,3.4-0.6,4.9-1.7c3.4-2.7,4.2-7.8,1.4-11.2
		C333.4,398.3,328.3,397.7,324.9,400.3z"/>
	<path class="st0" d="M347.5,379.9c-3,3.2-3,8.2,0.2,11.4c1.6,1.4,3.6,2.2,5.5,2.2c2.2,0,4.2-0.9,5.8-2.5c0-0.1,0-0.1,0-0.1
		c3-3.2,2.9-8.2-0.3-11.3C355.6,376.5,350.6,376.7,347.5,379.9z"/>
	<path class="st0" d="M271.4,429.3c-4.2,1.4-6.3,6-4.9,10.2c1.1,3.3,4.2,5.4,7.5,5.4c0.9,0,1.8-0.2,2.6-0.4c4.2-1.5,6.4-6.1,5-10.2
		C280.2,430,275.6,427.8,271.4,429.3z"/>
	<path class="st0" d="M211.7,440c-4.4,0-7.9,3.7-7.8,8.1c0.1,4.4,3.6,7.9,8,7.9c0,0,0.1,0,0.1-0.1c4.5-0.1,8-3.7,7.9-8.1
		C219.8,443.4,216.1,439.8,211.7,440z"/>
	<path class="st0" d="M181.2,438.2c-4.3-0.6-8.4,2.4-9,6.8c-0.6,4.4,2.4,8.4,6.8,9c0.4,0.1,0.7,0.1,1.1,0.1c3.9,0,7.4-2.9,7.9-6.9
		C188.6,442.8,185.6,438.7,181.2,438.2z"/>
	<path class="st0" d="M242,437c-4.3,0.7-7.3,4.9-6.5,9.3c0.7,3.8,4.1,6.6,7.8,6.6c0.5,0,1-0.1,1.4-0.2c4.3-0.7,7.3-4.9,6.5-9.3
		C250.5,439.1,246.3,436.2,242,437z"/>
	<path class="st0" d="M8,256c1,0,2.1-0.2,3-0.6s1.8-1,2.6-1.7c1.5-1.5,2.3-3.5,2.3-5.7c0-105.9,86.1-192,192-192
		c48.2,0,93.9,17.9,129.3,50.3c-0.8,2.3-1.3,4.7-1.3,7.3c0,12.4,10,22.4,22.4,22.4s22.4-10,22.4-22.4s-10-22.4-22.4-22.4
		c-3.9,0-7.5,1.1-10.6,2.8C309.4,59.2,260,40,208,40C93.3,40,0,133.3,0,248c0,2.2,0.8,4.2,2.3,5.7c0.8,0.7,1.7,1.3,2.6,1.7
		S7,256,8,256z M358.4,107.2c3.5,0,6.4,2.9,6.4,6.4s-2.9,6.4-6.4,6.4s-6.4-2.9-6.4-6.4S354.9,107.2,358.4,107.2z"/>
	<path class="st0" d="M307.9,340.1c-8.7-7.6-18-14.2-28-19.6c7-17.8,11.8-39.2,12.6-64.6h3.4v-16h-3.4c-0.1-1.6-0.1-3.1-0.2-4.6
		c-0.1-1.3-0.2-2.5-0.3-3.7c-0.1-1.6-0.2-3.2-0.3-4.8l-0.1,0c-1-10.6-2.7-20.8-5.2-30.5l0,0c-0.1-0.2-0.1-0.4-0.2-0.6
		c-0.9-3.6-2-7.1-3.1-10.5c-0.2-0.8-0.4-1.6-0.7-2.3c-0.9-2.5-1.8-4.9-2.8-7.4c10-5.4,19.4-12,28.1-19.7
		c5.6,6.2,10.8,12.9,15.3,20.1h18.4C315,126.5,264.3,96,208,96c-83.8,0-152,68.2-152,152s68.2,152,152,152c56.3,0,107-30.6,133.6-80
		h-18.4C318.7,327.3,313.6,334,307.9,340.1z M296.4,351.3c-16.5,14.2-36.2,24.2-57.6,29.1c11.4-10.1,24.2-24.8,34.6-45.1
		C281.5,339.9,289.2,345.2,296.4,351.3z M267.9,189.5c1.1,3.3,2.1,6.8,3.1,10.3c2.7,10.4,4.4,21.4,5.2,32.9c0.1,1.2,0.2,2.4,0.3,3.6
		c0.1,1.2,0.1,2.4,0.1,3.6H216v-46.8c17.1-0.9,33.7-4.4,49.3-10.8c0.8,2,1.6,3.9,2.3,6C267.7,188.8,267.8,189.1,267.9,189.5z
		 M158.2,140.7c0-3.5,2.9-6.4,6.4-6.4s6.4,2.9,6.4,6.4s-2.9,6.4-6.4,6.4S158.2,144.2,158.2,140.7z M258.8,167.8
		c-13.5,5.5-28,8.6-42.8,9.4v-59C227.5,126.2,245.4,141.8,258.8,167.8z M238.5,115.5c21.5,4.9,41.4,15,57.9,29.2
		c-7.2,6.2-14.9,11.6-23.1,16.1C262.8,140.3,249.9,125.6,238.5,115.5z M172.9,119.9c-2-0.8-4.1-1.2-6.3-1.4
		c3.6-1.1,7.2-2.1,10.9-2.9C176,116.9,174.5,118.4,172.9,119.9z M146.6,153.9c-1.3,2.3-2.6,4.6-3.8,6.9c-8.2-4.5-15.9-9.9-23.1-16.1
		c8.4-7.2,17.7-13.4,27.8-18.4c-3.2,3.9-5.3,8.8-5.3,14.3C142.2,145.6,143.8,150.2,146.6,153.9z M160.1,162.6c1.5,0.3,3,0.5,4.5,0.5
		c12.4,0,22.4-10,22.4-22.4c0-3.5-0.9-6.9-2.4-9.8c5.7-5.5,11-9.6,15.4-12.7v59.1c-14.8-0.9-29.3-4-42.8-9.4
		C158.1,166,159.1,164.3,160.1,162.6z M200,193.2V240h-60.6c0.8-20.9,4.5-40.1,11.3-57.6C166.3,188.8,182.9,192.3,200,193.2z
		 M200,256v46.8c-0.6,0-1.1,0-1.7,0.1c-3.8-6.9-11.1-11.7-19.5-11.7c-11.6,0-21,8.9-22.2,20.2c-2,0.7-3.9,1.5-5.9,2.3
		c-6.2-15.9-10.3-35.1-11.2-57.6L200,256L200,256z M216,378v-59.2c14.8,0.9,29.2,4.1,42.8,9.6C245.3,354.6,227.5,370.1,216,378z
		 M185.2,313.6c0,3.5-2.9,6.4-6.4,6.4s-6.4-2.9-6.4-6.4s2.9-6.4,6.4-6.4S185.2,310.1,185.2,313.6z M160.9,327c4.1,5.4,10.5,9,17.8,9
		c9.9,0,18.3-6.6,21.2-15.5v57.4c-11.4-8-29.2-23.6-42.6-49.5C158.6,327.9,159.8,327.4,160.9,327z M177.1,380.3
		c-21.5-5-41.1-15.1-57.4-29.1c7.1-6.1,14.8-11.4,22.9-15.9C153,355.6,165.8,370.2,177.1,380.3z M265.4,313.6
		c-15.6-6.4-32.3-10-49.4-10.8V256h60.5C275.6,278.6,271.5,297.8,265.4,313.6z M108.2,155.9c8.7,7.6,18,14.2,28,19.6
		c-7.7,19.5-12,41.1-12.8,64.5h-51C74.3,207.6,87.5,178.4,108.2,155.9z M72.4,256h51c0.9,25.4,5.7,46.8,12.7,64.6
		c-10,5.4-19.4,11.9-28,19.4C87.5,317.5,74.3,288.3,72.4,256z"/>
</g>
<path class="st1" d="M472,320H312c-13.2,0-24-10.8-24-24v-96c0-13.2,10.8-24,24-24h160c13.2,0,24,10.8,24,24v96
	C496,309.2,485.2,320,472,320z"/>
<g>
	<path class="st0" d="M320,288h72v-80h-72V288z M336,224h40v48h-40V224z"/>
	<rect x="408" y="208" class="st0" width="56" height="16"/>
	<rect x="408" y="240" class="st0" width="56" height="16"/>
	<rect x="408" y="272" class="st0" width="32" height="16"/>
</g>
</svg>
