<?xml version="1.0" encoding="utf-8"?>
<!-- Generator: Adobe Illustrator 20.1.0, SVG Export Plug-In . SVG Version: 6.00 Build 0)  -->
<svg version="1.1" id="Layer_1" xmlns="http://www.w3.org/2000/svg" xmlns:xlink="http://www.w3.org/1999/xlink" x="0px" y="0px"
	 viewBox="0 0 496 496" style="enable-background:new 0 0 496 496;" xml:space="preserve">
<style type="text/css">
	.st0{fill:#FECF35;}
	.st1{fill:#333333;}
</style>
<polygon class="st0" points="280,0 280,104 384,104 "/>
<g>
	<path class="st1" d="M467.4,404.1l-35.9-83.5c0.2-1.5,0.5-3,0.5-4.6c0-0.2-0.1-0.5-0.1-0.7l61.5-143.1c7-16.2-0.6-35.1-16.8-42
		c-16.2-7-35.1,0.6-42,16.8l-38.8,90.4L384,209.9V104h-16v68.7l-11.1-25.8c-7-16.2-25.8-23.7-42-16.8c-16.2,7-23.7,25.8-16.8,42
		L360,316.3c0,1.2,0.2,2.3,0.3,3.4l-36.3,84.4c-16.8,7.5-28.6,24.3-28.6,43.9c0,5.6,1,11,2.8,16H16V16h264V0H0v480h307.8
		c8.8,9.8,21.5,16,35.7,16c26.5,0,48-21.5,48-48c0-8.7-2.3-16.8-6.4-23.8l10.6-24.7l10.6,24.7c-4,7-6.4,15.1-6.4,23.8
		c0,26.5,21.5,48,48,48s48-21.5,48-48C496,428.4,484.2,411.6,467.4,404.1z M448.2,400c-0.1,0-0.2,0-0.2,0c-11.4,0-21.8,4-30,10.6
		l-25.3-59c1.1,0.1,2.2,0.3,3.4,0.3c10.5,0,19.9-4.6,26.5-11.8L448.2,400z M416,316c0,11-9,20-20,20s-20-9-20-20s9-20,20-20
		S416,305,416,316z M449.3,153.2c3.5-8.1,12.9-11.9,21-8.4c8.1,3.5,11.9,12.9,8.4,21l-54.8,127.7c-2-2.5-4.2-4.7-6.8-6.5l-12.6-29.4
		L449.3,153.2z M321.2,144.8c8.1-3.5,17.5,0.3,21,8.4l54.5,126.9c-0.2,0-0.5-0.1-0.7-0.1c-11.5,0-21.6,5.5-28.2,13.9l-55-128
		C309.3,157.7,313.1,148.3,321.2,144.8z M343.5,480c-17.6,0-32-14.4-32-32s14.4-32,32-32s32,14.4,32,32S361.2,480,343.5,480z
		 M373.6,410.6c-8.2-6.6-18.7-10.6-30-10.6c-0.1,0-0.1,0-0.2,0l25.9-60.2c0.6,0.7,1.2,1.4,1.8,2l16.1,37.4L373.6,410.6z M448,480
		c-17.6,0-32-14.4-32-32s14.4-32,32-32s32,14.4,32,32S465.6,480,448,480z"/>
	<rect x="40" y="128" class="st1" width="240" height="16"/>
	<rect x="40" y="168" class="st1" width="248" height="16"/>
	<rect x="40" y="208" class="st1" width="264" height="16"/>
	<rect x="40" y="248" class="st1" width="280" height="16"/>
	<rect x="208" y="288" class="st1" width="128" height="16"/>
</g>
</svg>
