<?xml version="1.0" encoding="utf-8"?>
<!-- Generator: Adobe Illustrator 20.1.0, SVG Export Plug-In . SVG Version: 6.00 Build 0)  -->
<svg version="1.1" id="Слой_1" xmlns="http://www.w3.org/2000/svg" xmlns:xlink="http://www.w3.org/1999/xlink" x="0px" y="0px"
	 viewBox="0 0 470 437.2" style="enable-background:new 0 0 470 437.2;" xml:space="preserve">
<style type="text/css">
	.st0{fill:#FECF35;}
	.st1{fill:#363636;}
</style>
<path class="st0" d="M336.7,310.3H292c-6.6,0-12-5.4-12-12V169c0-6.6,5.4-12,12-12h44.7c6.6,0,12,5.4,12,12v129.3
	C348.7,304.9,343.3,310.3,336.7,310.3z"/>
<path class="st1" d="M469.8,167.3l-77.3-76.9c-1.4-1.4-3.3-2.2-5.3-2.2H39.5c-4.1,0-7.5,3.4-7.5,7.5v278.5c0,4.1,3.4,7.5,7.5,7.5
	h347.7c2,0,3.9-0.8,5.3-2.2l77.3-76.9c1.4-1.4,2.2-3.3,2.2-5.3V172.6C472,170.6,471.2,168.7,469.8,167.3z M457,294.3l-72.9,72.5H47
	V103.2h337.1l72.9,72.5V294.3z"/>
<path class="st1" d="M364.7,65.7c0-4.1-3.4-7.5-7.5-7.5H9.5c-4.1,0-7.5,3.4-7.5,7.5v278.5c0,4.1,3.4,7.5,7.5,7.5s7.5-3.4,7.5-7.5
	v-271h340.2C361.4,73.2,364.7,69.9,364.7,65.7z"/>
<path class="st1" d="M256.9,160.1c4.1,0,7.5-3.4,7.5-7.5s-3.4-7.5-7.5-7.5h-71.7c-4.1,0-7.5,3.4-7.5,7.5v164.7
	c0,4.1,3.4,7.5,7.5,7.5h71.7c4.1,0,7.5-3.4,7.5-7.5s-3.4-7.5-7.5-7.5h-64.2v-67.4h42.7c4.1,0,7.5-3.4,7.5-7.5s-3.4-7.5-7.5-7.5
	h-42.7V160L256.9,160.1z"/>
<path class="st1" d="M117,160.1c16.5,0,29.8,13.4,29.8,29.8c0,4.1,3.4,7.5,7.5,7.5s7.5-3.4,7.5-7.5c0-24.7-20.1-44.8-44.8-44.8
	s-44.8,20.1-44.8,44.8c0,32.3,26,44.5,41.6,51.8c18,8.5,33,17.2,33,38.2c0,16.5-13.4,29.8-29.8,29.8c-16.5,0-29.8-13.4-29.8-29.8
	c0-4.1-3.4-7.5-7.5-7.5s-7.5,3.4-7.5,7.5c0,24.7,20.1,44.8,44.8,44.8s44.8-20.1,44.8-44.8c0-32.3-26-44.5-41.6-51.8
	c-18-8.5-33-17.2-33-38.2C87.1,173.5,100.5,160.1,117,160.1L117,160.1z"/>
<path class="st1" d="M314,145.1c-24.7,0-44.8,20.1-44.8,44.8L269,280c0,24.7,20.1,44.8,44.8,44.8s44.8-20.1,44.8-44.8v-90
	C358.7,165.2,338.6,145.1,314,145.1z M343.7,280c0,16.5-13.4,29.8-29.8,29.8S284,296.5,284,280l0.1-90.1c0-16.5,13.4-29.8,29.8-29.8
	s29.7,13.4,29.7,29.8L343.7,280L343.7,280z"/>
<path class="st1" d="M409.5,257.5c12.4,0,22.5-10.1,22.5-22.5s-10.1-22.5-22.5-22.5S387,222.6,387,235S397.1,257.5,409.5,257.5z
	 M409.5,227.5c4.1,0,7.5,3.4,7.5,7.5s-3.4,7.5-7.5,7.5s-7.5-3.4-7.5-7.5S405.4,227.5,409.5,227.5z"/>
</svg>
