<?xml version="1.0" encoding="utf-8"?>
<!-- Generator: Adobe Illustrator 20.1.0, SVG Export Plug-In . SVG Version: 6.00 Build 0)  -->
<svg version="1.1" id="Слой_1" xmlns="http://www.w3.org/2000/svg" xmlns:xlink="http://www.w3.org/1999/xlink" x="0px" y="0px"
	 viewBox="0 0 470 437.2" style="enable-background:new 0 0 470 437.2;" xml:space="preserve">
<style type="text/css">
	.st0{fill:#FECF35;}
	.st1{fill:#363636;}
</style>
<g id="Слой_2">
	<path class="st0" d="M408.6,276.2h-352c-2.2,0-4-1.8-4-4V53.7c0-2.2,1.8-4,4-4h352c2.2,0,4,1.8,4,4v218.5
		C412.6,274.4,410.8,276.2,408.6,276.2z"/>
</g>
<g>
	<path class="st1" d="M452.2,0H17.8C8,0,0,8,0,17.8V347c0,9.8,8,17.8,17.8,17.8h163.8v57.4h-70.7c-4.1,0-7.5,3.4-7.5,7.5
		s3.4,7.5,7.5,7.5h248.2c4.1,0,7.5-3.4,7.5-7.5s-3.4-7.5-7.5-7.5h-70.7v-57.4h163.8c9.8,0,17.8-8,17.8-17.8V17.8
		C470,8,462,0,452.2,0z M273.4,422.2h-76.7v-57.4h76.7L273.4,422.2L273.4,422.2z M455,347c0,1.5-1.3,2.8-2.8,2.8H17.8
		c-1.5,0-2.8-1.3-2.8-2.8V17.8c0-1.5,1.3-2.8,2.8-2.8h434.3c1.5,0,2.8,1.3,2.8,2.8V347H455z"/>
	<path class="st1" d="M431.5,288.8h-393c-4.1,0-7.5,3.4-7.5,7.5s3.4,7.5,7.5,7.5h393c4.1,0,7.5-3.4,7.5-7.5S435.6,288.8,431.5,288.8
		z"/>
	<path class="st1" d="M110,263.8h40c4.1,0,7.5-3.4,7.5-7.5V147.5c0-4.1-3.4-7.5-7.5-7.5h-40c-4.1,0-7.5,3.4-7.5,7.5v108.8
		C102.5,260.5,105.9,263.8,110,263.8z M117.5,155h25v93.8h-25V155z"/>
	<path class="st1" d="M180,263.8h40c4.1,0,7.5-3.4,7.5-7.5V112c0-4.1-3.4-7.5-7.5-7.5h-40c-4.1,0-7.5,3.4-7.5,7.5v144.3
		C172.5,260.5,175.9,263.8,180,263.8z M187.5,119.5h25v129.3h-25V119.5z"/>
	<path class="st1" d="M250,263.8h40c4.1,0,7.5-3.4,7.5-7.5V78.5c0-4.1-3.4-7.5-7.5-7.5h-40c-4.1,0-7.5,3.4-7.5,7.5v177.8
		C242.5,260.5,245.9,263.8,250,263.8z M257.5,86h25v162.8h-25V86z"/>
	<path class="st1" d="M320,263.8h40c4.1,0,7.5-3.4,7.5-7.5V182c0-4.1-3.4-7.5-7.5-7.5h-40c-4.1,0-7.5,3.4-7.5,7.5v74.3
		C312.5,260.5,315.9,263.8,320,263.8z M327.5,189.5h25v59.3h-25V189.5z"/>
</g>
</svg>
