<?xml version="1.0" encoding="utf-8"?>
<!-- Generator: Adobe Illustrator 20.1.0, SVG Export Plug-In . SVG Version: 6.00 Build 0)  -->
<svg version="1.1" id="Слой_1" xmlns="http://www.w3.org/2000/svg" xmlns:xlink="http://www.w3.org/1999/xlink" x="0px" y="0px"
	 viewBox="0 0 470 470.1" style="enable-background:new 0 0 470 470.1;" xml:space="preserve">
<style type="text/css">
	.st0{fill:#FECF35;}
	.st1{fill:#363636;}
</style>
<path class="st0" d="M291,91.5H25c-6.6,0-12-5.4-12-12V42c0-6.6,5.4-12,12-12h266c6.6,0,12,5.4,12,12v37.5
	C303,86.1,297.6,91.5,291,91.5z"/>
<path class="st1" d="M465.5,23.5h-455C6.4,23.5,3,26.9,3,31v410c0,4.1,3.4,7.5,7.5,7.5h455c4.1,0,7.5-3.4,7.5-7.5v-66v-14V31
	C473,26.9,469.6,23.5,465.5,23.5z M310.5,38.5H458v45H310.5V38.5z M18,38.5h277.5v45H18V38.5z M458,433.5H18v-335h440V361v14V433.5z
	"/>
<path class="st1" d="M384.5,53c-4.4,0-8,3.6-8,8s3.6,8,8,8s8-3.6,8-8S388.9,53,384.5,53z"/>
<path class="st1" d="M343.5,53c-4.4,0-8,3.6-8,8s3.6,8,8,8s8-3.6,8-8S347.9,53,343.5,53z"/>
<path class="st1" d="M425.5,53c-4.4,0-8,3.6-8,8s3.6,8,8,8s8-3.6,8-8S429.9,53,425.5,53z"/>
<path class="st1" d="M151.7,227c2.9-0.4,5.4-2.4,6.3-5.3l17.3-57.6c1.2-4-1.1-8.1-5-9.3c-4-1.2-8.1,1.1-9.3,5l-12.4,41.3l-11.9-19.9
	c-1.4-2.3-3.8-3.6-6.4-3.6s-5.1,1.4-6.4,3.6L112,201.1l-12.4-41.3c-1.2-4-5.4-6.2-9.3-5c-4,1.2-6.2,5.4-5,9.3l17.3,57.6
	c0.9,2.8,3.3,4.9,6.3,5.3c0.3,0,0.6,0.1,0.9,0.1c2.6,0,5.1-1.4,6.4-3.6l14.2-23.8l14.2,23.8C145.9,226,148.8,227.4,151.7,227
	L151.7,227z"/>
<path class="st1" d="M209.4,227c0.3,0,0.6,0.1,0.9,0.1c2.6,0,5.1-1.4,6.4-3.6l14.2-23.8l14.2,23.8c1.5,2.5,4.4,4,7.4,3.6
	c2.9-0.4,5.4-2.4,6.3-5.3l17.3-57.6c1.2-4-1.1-8.1-5-9.3c-4-1.2-8.1,1.1-9.3,5l-12.4,41.3l-11.9-19.9c-1.4-2.3-3.8-3.6-6.4-3.6
	c-2.6,0-5.1,1.4-6.4,3.6l-11.9,19.9l-12.4-41.3c-1.2-4-5.4-6.2-9.3-5c-4,1.2-6.2,5.4-5,9.3l17.3,57.6
	C204,224.5,206.4,226.6,209.4,227z"/>
<path class="st1" d="M371.9,154.8c-4-1.2-8.1,1.1-9.3,5l-12.4,41.3l-11.9-19.9c-1.4-2.3-3.8-3.6-6.4-3.6s-5.1,1.4-6.4,3.6
	l-11.9,19.9l-12.4-41.3c-1.2-4-5.4-6.2-9.3-5c-4,1.2-6.2,5.4-5,9.3l17.3,57.6c0.9,2.8,3.3,4.9,6.3,5.3c2.9,0.4,5.8-1,7.4-3.6
	l14.2-23.8l14.2,23.8c1.4,2.3,3.8,3.6,6.4,3.6c0.3,0,0.6,0,0.9-0.1c2.9-0.4,5.4-2.4,6.3-5.3l17.3-57.6
	C378.1,160.1,375.8,155.9,371.9,154.8z"/>
<path class="st1" d="M369.7,282h-30c-4.1,0-7.5,3.4-7.5,7.5s3.4,7.5,7.5,7.5h30c4.1,0,7.5-3.4,7.5-7.5S373.9,282,369.7,282z"/>
<path class="st1" d="M309.7,282H162.2c-4.1,0-7.5,3.4-7.5,7.5s3.4,7.5,7.5,7.5h147.5c4.1,0,7.5-3.4,7.5-7.5S313.9,282,309.7,282z"/>
<path class="st1" d="M369.7,352h-30c-4.1,0-7.5,3.4-7.5,7.5s3.4,7.5,7.5,7.5h30c4.1,0,7.5-3.4,7.5-7.5S373.9,352,369.7,352z"/>
<path class="st1" d="M309.7,352H162.2c-4.1,0-7.5,3.4-7.5,7.5s3.4,7.5,7.5,7.5h147.5c4.1,0,7.5-3.4,7.5-7.5S313.9,352,309.7,352z"/>
<path class="st0" d="M125.5,317.6h-27c-6.6,0-12-5.4-12-12v-27c0-6.6,5.4-12,12-12h27c6.6,0,12,5.4,12,12v27
	C137.5,312.2,132.1,317.6,125.5,317.6z"/>
<path class="st0" d="M125.5,385.6h-27c-6.6,0-12-5.4-12-12v-27c0-6.6,5.4-12,12-12h27c6.6,0,12,5.4,12,12v27
	C137.5,380.2,132.1,385.6,125.5,385.6z"/>
</svg>
